Coordinates
version=1
nRows=11
nColumns=46
inDegrees=yes

Units are S.I. units (second, meters, Newtons, ...)
Angles are in degrees.

endheader
time	pelvis_tilt	pelvis_list	pelvis_rotation	pelvis_tx	pelvis_ty	pelvis_tz	bb_angle	bb_tx	bb_ty	bb_tz	hip_flexion_r	hip_adduction_r	hip_rotation_r	knee_angle_r	knee_angle_r_beta	ankle_angle_r	subtalar_angle_r	mtp_angle_r	crank_angle_r	hip_flexion_l	hip_adduction_l	hip_rotation_l	knee_angle_l	knee_angle_l_beta	ankle_angle_l	subtalar_angle_l	mtp_angle_l	crank_angle_l	lumbar_extension	lumbar_bending	lumbar_rotation	arm_flex_r	arm_add_r	arm_rot_r	elbow_flex_r	pro_sup_r	wrist_flex_r	wrist_dev_r	arm_flex_l	arm_add_l	arm_rot_l	elbow_flex_l	pro_sup_l	wrist_flex_l	wrist_dev_l
      5.00500000	     -8.22945760	      0.63995009	     -7.12548404	      0.12710509	      1.13509179	     -0.25878951	      0.00000000	      0.50000000	      0.00000000	      0.25000000	     69.60856764	      5.62363535	      7.43164182	     78.82050285	      1.37567729	     15.73931337	    -15.32985446	      0.00000000	      0.00000000	     48.63535545	    -12.89489505	     -5.06894694	     78.23805090	      1.36551159	     -7.37314899	     -7.11902237	      0.00000000	      0.00000000	    -68.00263805	     -1.08845310	     -0.47600047	     83.80396391	    -10.26783963	     29.63513777	     64.81211529	     45.81288260	      0.00000000	      0.00000000	     78.73874670	    -27.70276621	     25.08128181	     62.93972653	     49.98168088	      0.00000000	      0.00000000
      5.01000000	     -8.11473452	      0.71626643	     -7.06552687	      0.12675920	      1.13252060	     -0.25841514	      0.00000000	      0.50000000	      0.00000000	      0.25000000	     68.54799745	      5.45078642	      7.51179301	     76.98984204	      1.34372623	     15.01503040	    -15.37041058	      0.00000000	      0.00000000	     49.87976583	    -13.05599865	     -4.79371766	     80.87415815	      1.41152034	     -6.85407773	     -7.32266066	      0.00000000	      0.00000000	    -67.74734630	     -1.11568017	     -0.47129188	     83.97704120	    -10.45973371	     30.15274157	     64.36773302	     45.78840885	      0.00000000	      0.00000000	     78.66548720	    -27.25150929	     24.80148832	     62.45405533	     49.88844484	      0.00000000	      0.00000000
      5.01500000	     -7.87063720	      1.13486064	     -7.00723371	      0.12650826	      1.13059411	     -0.25822939	      0.00000000	      0.50000000	      0.00000000	      0.25000000	     67.45477285	      4.97872342	      7.85595015	     75.30290569	      1.31428364	     14.11611804	    -14.92216901	      0.00000000	      0.00000000	     50.81796831	    -12.84636805	     -4.78240610	     83.22495145	      1.45254942	     -6.28001694	     -7.65585562	      0.00000000	      0.00000000	    -67.67920912	     -1.38563524	     -0.84350855	     83.96051868	    -10.63651020	     30.34183116	     64.20736268	     45.78142082	      0.00000000	      0.00000000	     78.71580887	    -27.03319305	     24.77737790	     62.33127315	     49.87134348	      0.00000000	      0.00000000
      5.02000000	     -7.60896240	      1.59204866	     -6.83799318	      0.12605617	      1.12910766	     -0.25774443	      0.00000000	      0.50000000	      0.00000000	      0.25000000	     66.28236513	      4.52479265	      8.36732856	     73.62063531	      1.28492248	     13.37840688	    -14.49831600	      0.00000000	      0.00000000	     51.75165873	    -12.58090180	     -4.75412171	     85.43182771	      1.49106668	     -5.97880425	     -7.83629465	      0.00000000	      0.00000000	    -67.65064408	     -1.64434448	     -1.35506307	     83.97542167	    -10.80689108	     30.39090620	     64.14141662	     45.77589056	      0.00000000	      0.00000000	     78.69619868	    -26.86592900	     24.84334934	     62.26678863	     49.87061008	      0.00000000	      0.00000000
      5.02500000	     -7.66961460	      1.14911614	     -6.60056527	      0.12569564	      1.12732079	     -0.25801987	      0.00000000	      0.50000000	      0.00000000	      0.25000000	     65.33859995	      4.34380239	      7.78745887	     71.73768086	      1.25205873	     11.69522401	    -14.50907160	      0.00000000	      0.00000000	     53.27188822	    -12.91334231	     -3.80299594	     87.90003823	      1.53414508	     -4.99855826	     -7.60827133	      0.00000000	      0.00000000	    -67.40738221	     -1.14189781	     -0.93003877	     84.27966920	    -11.03791220	     31.33146994	     63.59804159	     45.77748344	      0.00000000	      0.00000000	     78.84531246	    -26.88090627	     25.06511648	     61.71139351	     49.82840875	      0.00000000	      0.00000000
      5.03000000	     -7.52407325	      1.26046927	     -6.41429762	      0.12550024	      1.12647889	     -0.25777084	      0.00000000	      0.50000000	      0.00000000	      0.25000000	     64.18731370	      3.93869633	      7.78456853	     69.91498276	      1.22024665	     10.15568770	    -14.28738797	      0.00000000	      0.00000000	     54.33509091	    -12.87911723	     -3.42653296	     90.02407014	      1.57121643	     -4.12838081	     -7.33976329	      0.00000000	      0.00000000	    -67.35692012	     -1.14273574	     -1.03591875	     84.43152850	    -11.46531388	     32.19665548	     63.28129988	     45.80726803	      0.00000000	      0.00000000	     78.98951143	    -26.87505088	     25.53338063	     61.43716528	     49.85897727	      0.00000000	      0.00000000
      5.03500000	     -7.51648989	      1.40880999	     -6.43265239	      0.12561986	      1.12634409	     -0.25763464	      0.00000000	      0.50000000	      0.00000000	      0.25000000	     63.01517644	      3.71354625	      7.95356743	     67.87439895	      1.18463174	      8.50307100	    -14.16068528	      0.00000000	      0.00000000	     55.40398454	    -12.94380352	     -3.19438289	     91.96475775	      1.60508782	     -3.25471543	     -7.04843283	      0.00000000	      0.00000000	    -67.28832897	     -1.29903799	     -1.12012121	     84.48359203	    -11.82792924	     32.72451120	     63.30217845	     45.85756318	      0.00000000	      0.00000000	     79.03627233	    -27.00894528	     25.96010569	     61.46396376	     49.93486961	      0.00000000	      0.00000000
      5.04000000	     -7.44864994	      1.81191217	     -6.28656393	      0.12569583	      1.12653153	     -0.25741140	      0.00000000	      0.50000000	      0.00000000	      0.25000000	     61.80940174	      3.12340695	      8.17980829	     65.93279131	      1.15074429	      7.19983391	    -13.43033666	      0.00000000	      0.00000000	     56.37246955	    -12.66236074	     -3.09660883	     93.73395332	      1.63596611	     -2.52621152	     -7.09702426	      0.00000000	      0.00000000	    -67.24706994	     -1.50669318	     -1.56055816	     84.20213912	    -11.98743068	     32.65690523	     63.35875113	     45.85538181	      0.00000000	      0.00000000	     78.98043756	    -26.97863828	     25.97624936	     61.53249629	     49.92641370	      0.00000000	      0.00000000
      5.04500000	     -7.45475335	      1.71995805	     -6.17067176	      0.12593250	      1.12723120	     -0.25754662	      0.00000000	      0.50000000	      0.00000000	      0.25000000	     60.43995630	      2.82463859	      7.94689409	     63.73020057	      1.11230183	      5.47607480	    -13.38919842	      0.00000000	      0.00000000	     57.50686388	    -12.75693186	     -2.55404770	     95.55073590	      1.66767494	     -1.44189443	     -6.42040831	      0.00000000	      0.00000000	    -67.36447352	     -1.37665787	     -1.50744963	     84.36639644	    -12.21296720	     32.87160571	     63.47045223	     45.88640862	      0.00000000	      0.00000000	     79.13387220	    -27.17327459	     26.19914033	     61.68948630	     49.96410574	      0.00000000	      0.00000000
      5.05000000	     -7.61934680	      2.00954322	     -6.02212971	      0.12590754	      1.12789136	     -0.25678559	      0.00000000	      0.50000000	      0.00000000	      0.25000000	     59.25682562	      2.36116554	      8.02433503	     61.56528591	      1.07451694	      3.88558204	    -13.20840771	      0.00000000	      0.00000000	     58.74312254	    -12.62082683	     -2.27006242	     97.13636629	      1.69534942	     -0.50405940	     -5.81025629	      0.00000000	      0.00000000	    -67.22281426	     -1.61056247	     -1.70456927	     84.36932294	    -12.89452519	     33.67183612	     63.62891107	     45.98761452	      0.00000000	      0.00000000	     79.46059460	    -27.46856497	     27.32512206	     61.80618472	     50.14028731	      0.00000000	      0.00000000
      5.05500000	     -7.75166845	      2.42226041	     -5.87086804	      0.12599352	      1.12908066	     -0.25647591	      0.00000000	      0.50000000	      0.00000000	      0.25000000	     57.97171896	      1.67043096	      8.08982265	     59.36627839	      1.03613702	      2.57510915	    -12.22425146	      0.00000000	      0.00000000	     59.88820284	    -12.33138842	     -2.16478097	     98.57045918	      1.72037906	      0.22662775	     -5.73586235	      0.00000000	      0.00000000	    -67.16465603	     -1.85411503	     -2.13972484	     84.27484747	    -13.07548441	     33.57762710	     63.67513965	     45.98237297	      0.00000000	      0.00000000	     79.59848324	    -27.38843500	     27.35447902	     61.86292006	     50.14066331	      0.00000000	      0.00000000
